<svg height='100px' width='100px'  fill="#1A1A1A" xmlns="http://www.w3.org/2000/svg" data-name="Layer 1" viewBox="0 0 100 100" x="0px" y="0px"><defs><style>.cls-1{fill:none;}</style></defs><title>Lentil</title><path class="cls-1" d="M45,42.6c.07.12.13.25.18.37a7.15,7.15,0,0,1,1.05-.47,6.09,6.09,0,0,1,5.64.65,5.08,5.08,0,0,1,.58-1.3c.09-.14.21-.27.31-.41a5.41,5.41,0,0,1-.84-.3A4.35,4.35,0,0,1,49.77,39a5.28,5.28,0,0,1-.39.76A6.55,6.55,0,0,1,46,42.33,7.15,7.15,0,0,1,45,42.6Z"></path><path class="cls-1" d="M30,42.77h-.13c-.14.64-.11,1.85,1.27,3.36a7.1,7.1,0,0,1,1.2-.57,6.65,6.65,0,0,1,3.53-.27A6.45,6.45,0,0,1,38.28,41a4.21,4.21,0,0,1,1-.51,3.4,3.4,0,0,1-.48-1.12,5.44,5.44,0,0,1-1.69.27,7,7,0,0,1-2.23-.39,4,4,0,0,1-.21.74,4.31,4.31,0,0,1-2.36,2.33A5.78,5.78,0,0,1,30,42.77Z"></path><path class="cls-1" d="M51.29,47.51a2.33,2.33,0,0,0,.15-1.79,2.88,2.88,0,0,0-2.88-1.64,5,5,0,0,0-1.68.3,4.54,4.54,0,0,0-2.34,1.79,2.44,2.44,0,0,0-.34,2.13,2.33,2.33,0,0,0,1.25,1.3,4.42,4.42,0,0,0,3.31.05h0A4.44,4.44,0,0,0,51.29,47.51ZM48.53,46a2.22,2.22,0,0,1-1,.79,2.28,2.28,0,0,1-1.18.15,2.23,2.23,0,0,1-1.2-.58,3.67,3.67,0,0,1,.84-.95,3.11,3.11,0,0,1,.79-.47,3.22,3.22,0,0,1,.82-.2,8.75,8.75,0,0,0,1.15-.13A1.46,1.46,0,0,1,48.53,46Z"></path><path class="cls-1" d="M34.91,52.7a4.44,4.44,0,0,0,2.53-2.13,2.33,2.33,0,0,0,.15-1.79,2.88,2.88,0,0,0-2.88-1.64,5,5,0,0,0-1.67.3,4.54,4.54,0,0,0-2.34,1.79A2.26,2.26,0,0,0,32,52.8a4.52,4.52,0,0,0,2.94-.09Zm-1.22-2.88a2.28,2.28,0,0,1-1.18.15,2.23,2.23,0,0,1-1.2-.58,3.67,3.67,0,0,1,.84-.95,3.11,3.11,0,0,1,.79-.47,3.23,3.23,0,0,1,.82-.2,8.77,8.77,0,0,0,1.15-.13,1.46,1.46,0,0,1-.22,1.4A2.22,2.22,0,0,1,33.69,49.83Z"></path><path class="cls-1" d="M43.4,50.57A4.11,4.11,0,0,1,42.32,49a4.39,4.39,0,0,1,.53-3.87,5.81,5.81,0,0,1,.63-.82,2.25,2.25,0,0,0-1.6-1.82l-.11,0-.15-.07-.13,0a2.3,2.3,0,0,0-2,.31,4.76,4.76,0,0,0-1.62,3.43,4.15,4.15,0,0,1,1.65,2,4,4,0,0,1,.21,1.23A3.24,3.24,0,0,0,43.4,50.57Z"></path><path class="cls-1" d="M29.06,46.71a5.28,5.28,0,0,1-1.14-4.28l-.31-.11A4.63,4.63,0,0,1,26.86,45a6.14,6.14,0,0,1-1.68,1.72A6.87,6.87,0,0,1,29.06,46.71Z"></path><path class="cls-1" d="M19.88,45.81a4.54,4.54,0,0,0,2.94-.1h0a4.54,4.54,0,0,0,2.34-1.79,2.44,2.44,0,0,0,.34-2.14,2.88,2.88,0,0,0-2.88-1.64,5,5,0,0,0-1.68.3,4.55,4.55,0,0,0-2.34,1.79,2.26,2.26,0,0,0,1.27,3.58Zm.18-4.35a3.11,3.11,0,0,1,.79-.47,3.23,3.23,0,0,1,.82-.2,8.7,8.7,0,0,0,1.14-.13,1.46,1.46,0,0,1-.22,1.4,2.22,2.22,0,0,1-1,.79,2.28,2.28,0,0,1-1.18.15,2.22,2.22,0,0,1-1.2-.58A3.67,3.67,0,0,1,20.06,41.46Z"></path><path class="cls-1" d="M28.19,40.4h0a4.44,4.44,0,0,0,3.31.08,2.33,2.33,0,0,0,1.29-1.24c.58-1.43-.55-3.24-2.51-4a5,5,0,0,0-1.85-.37,2.82,2.82,0,0,0-2.76,1.53,2.44,2.44,0,0,0,.25,2.15A4.53,4.53,0,0,0,28.19,40.4Zm.75-5a3.12,3.12,0,0,1,.9.17,3.23,3.23,0,0,1,.75.4,8.81,8.81,0,0,0,.95.66,1.46,1.46,0,0,1-1.09.9,2.22,2.22,0,0,1-1.27-.07,2.29,2.29,0,0,1-1-.67,2.23,2.23,0,0,1-.51-1.23A3.68,3.68,0,0,1,28.95,35.38Z"></path><path class="cls-1" d="M41.13,37a2.25,2.25,0,0,0,1.21,3.55l.1,0a4.54,4.54,0,0,0,2.91-.1h0a4.54,4.54,0,0,0,2.34-1.79A2.44,2.44,0,0,0,48,36.52a2.88,2.88,0,0,0-2.88-1.65,5,5,0,0,0-1.68.3A4.54,4.54,0,0,0,41.13,37Zm1.45-.78a3.11,3.11,0,0,1,.79-.47,3.22,3.22,0,0,1,.82-.2,8.69,8.69,0,0,0,1.14-.13,1.46,1.46,0,0,1-.22,1.4,2.22,2.22,0,0,1-1,.79,2.28,2.28,0,0,1-1.18.15,2.22,2.22,0,0,1-1.2-.58A3.68,3.68,0,0,1,42.58,36.19Z"></path><path class="cls-1" d="M34.68,37a4.37,4.37,0,0,0,4.18.13,5.1,5.1,0,0,1,.57-1.24,6.14,6.14,0,0,1,1.67-1.71,4.88,4.88,0,0,0-4.31-3,4.21,4.21,0,0,0-4.31,3A6,6,0,0,1,34.68,37Z"></path><path class="cls-1" d="M64.29,49.15a5.73,5.73,0,0,0,5.2-2.26,4,4,0,0,1-.21-.44,4.19,4.19,0,0,1,0-2.85A4.19,4.19,0,0,1,67,42.48a3.87,3.87,0,0,0-4,1.67,5,5,0,0,1-.65,1.52,5.8,5.8,0,0,1-.5.65A5,5,0,0,1,64.29,49.15Z"></path><path class="cls-1" d="M52.78,39.33a4.06,4.06,0,0,0,2.17.3,7.16,7.16,0,0,1,.86-.38,7,7,0,0,1,1.2-.31,4.25,4.25,0,0,0,1.43-1.34,2.44,2.44,0,0,0,.34-2.13,2.88,2.88,0,0,0-2.88-1.64,5,5,0,0,0-1.68.3,4.54,4.54,0,0,0-2.34,1.79A2.44,2.44,0,0,0,51.53,38,2.33,2.33,0,0,0,52.78,39.33Zm.54-4.21a3.11,3.11,0,0,1,.79-.47,3.23,3.23,0,0,1,.82-.2,8.74,8.74,0,0,0,1.15-.13,1.46,1.46,0,0,1-.22,1.4,2.22,2.22,0,0,1-1,.79,2.28,2.28,0,0,1-1.18.15,2.22,2.22,0,0,1-1.2-.58A3.68,3.68,0,0,1,53.32,35.12Z"></path><path class="cls-1" d="M35.67,68.6a5,5,0,0,0-1.68.3,4.54,4.54,0,0,0-2.34,1.79,2.26,2.26,0,0,0,1.27,3.58,4.54,4.54,0,0,0,2.94-.09h0A4.44,4.44,0,0,0,38.41,72a2.33,2.33,0,0,0,.15-1.79A2.88,2.88,0,0,0,35.67,68.6Zm0,1.9a2.22,2.22,0,0,1-1,.79,2.28,2.28,0,0,1-1.18.15,2.23,2.23,0,0,1-1.2-.58,3.67,3.67,0,0,1,.84-.95,3.11,3.11,0,0,1,.79-.47,3.22,3.22,0,0,1,.82-.2,8.76,8.76,0,0,0,1.15-.13A1.46,1.46,0,0,1,35.64,70.5Z"></path><path class="cls-1" d="M72.85,42.35a5.14,5.14,0,0,1-.75.58,3.93,3.93,0,0,0-.6.72,2.44,2.44,0,0,0-.34,2.13,2.33,2.33,0,0,0,1.24,1.29,4.43,4.43,0,0,0,3.31.05h0a4.54,4.54,0,0,0,2.34-1.79,2.44,2.44,0,0,0,.34-2.14,2.88,2.88,0,0,0-2.88-1.64,5,5,0,0,0-1.68.3A5.07,5.07,0,0,0,72.85,42.35Zm2.86-.28a1.46,1.46,0,0,1-.22,1.4,2.22,2.22,0,0,1-1,.79,2.28,2.28,0,0,1-1.18.15,2.23,2.23,0,0,1-1.2-.58,3.67,3.67,0,0,1,.84-.95,3.11,3.11,0,0,1,.79-.47,3.22,3.22,0,0,1,.82-.2A8.75,8.75,0,0,0,75.71,42.06Z"></path><path class="cls-1" d="M73.33,62a4,4,0,0,0-1.23-.21,2.91,2.91,0,0,0-1.64.48c-1.7,1.14-1.83,3.92-.3,6.21S74.32,71.7,76,70.56A3.26,3.26,0,0,0,77.36,68a6.22,6.22,0,0,0-4-6Zm-.09,7.83A4.55,4.55,0,0,1,72,69a5.51,5.51,0,0,1-.78-.86,7.2,7.2,0,0,1-.56-.93A10.52,10.52,0,0,0,70,66a1.77,1.77,0,0,1,1.62,0,2.89,2.89,0,0,1,1.17,1,3.12,3.12,0,0,1,.57,1.32A2.79,2.79,0,0,1,73.24,69.82Z"></path><path class="cls-1" d="M60.69,44.61A2.44,2.44,0,0,0,61,42.47a2.89,2.89,0,0,0-2.88-1.64,4.89,4.89,0,0,0-.52,0,6.65,6.65,0,0,1-2.07.7,4.25,4.25,0,0,0-1.42,1.34,2.26,2.26,0,0,0,1.27,3.58,4.43,4.43,0,0,0,2.56,0,4.37,4.37,0,0,1,1.2-.49A4.29,4.29,0,0,0,60.69,44.61Zm-2.57-1.88a2.22,2.22,0,0,1-1,.79,2.28,2.28,0,0,1-1.18.15,2.22,2.22,0,0,1-1.2-.58,3.67,3.67,0,0,1,.84-.95,3.11,3.11,0,0,1,.79-.47,3.22,3.22,0,0,1,.82-.2,8.71,8.71,0,0,0,1.15-.13A1.46,1.46,0,0,1,58.12,42.74Z"></path><path class="cls-1" d="M69.58,41.62a2.2,2.2,0,0,0,1.29-.26,6.56,6.56,0,0,1,.84-.64,4.65,4.65,0,0,0,1.12-2.57c.25-2.1-.78-4-2.31-4.15h-.24a2.53,2.53,0,0,0-1.77.81,4.54,4.54,0,0,0-1.23,2.67h0A4.44,4.44,0,0,0,68,40.69,2.33,2.33,0,0,0,69.58,41.62Zm1.2-5.08a2.23,2.23,0,0,1,1.06-.81,3.67,3.67,0,0,1,.47,1.17,3.11,3.11,0,0,1,.07.92,3.23,3.23,0,0,1-.19.83,8.81,8.81,0,0,0-.39,1.08,1.46,1.46,0,0,1-1.15-.82,2.22,2.22,0,0,1-.26-1.24A2.29,2.29,0,0,1,70.78,36.54Z"></path><path class="cls-1" d="M60.12,38.66c-.1.15-.22.28-.33.43a4.52,4.52,0,0,1,3,2.46,5.86,5.86,0,0,1,2.88-1.08,6.68,6.68,0,0,1-.42-2.67,6.06,6.06,0,0,0-4.43-.9A4.91,4.91,0,0,1,60.12,38.66Z"></path><path class="cls-1" d="M14.1,46.4a2.88,2.88,0,0,0-2.88-1.64,5,5,0,0,0-1.68.3,4.55,4.55,0,0,0-2.34,1.79A2.44,2.44,0,0,0,6.87,49a2.34,2.34,0,0,0,1.25,1.3,4.43,4.43,0,0,0,3.31.05h0a4.54,4.54,0,0,0,2.34-1.79A2.44,2.44,0,0,0,14.1,46.4Zm-2.91.26a2.22,2.22,0,0,1-1,.79A2.28,2.28,0,0,1,9,47.6,2.22,2.22,0,0,1,7.82,47a3.68,3.68,0,0,1,.84-.95,3.11,3.11,0,0,1,.79-.47,3.23,3.23,0,0,1,.82-.2,8.7,8.7,0,0,0,1.14-.13A1.46,1.46,0,0,1,11.2,46.66Z"></path><path class="cls-1" d="M55.12,51.15A6.86,6.86,0,0,1,56,48.64a5.87,5.87,0,0,1-1.18-.25,5,5,0,0,1-1.4-.75,4.8,4.8,0,0,1-.27.74,6.3,6.3,0,0,1-3.33,3,4,4,0,0,1,.95,1.33,4.08,4.08,0,0,1,.3,1.72c.94.52,3.22,1.59,4.81.67A6.59,6.59,0,0,1,55.12,51.15Z"></path><path class="cls-1" d="M74.1,49.75c.05-.12.13-.23.19-.35l-.24,0a5.84,5.84,0,0,1-2.5-.54,4.82,4.82,0,0,1-.73-.43c-.08.1-.17.18-.26.28a4.63,4.63,0,0,1,3.25,2.41A4.07,4.07,0,0,1,74.1,49.75Z"></path><path class="cls-1" d="M60.35,47.92h-.24a2.08,2.08,0,0,0-.33,0,7.14,7.14,0,0,1-.76.34l-.22.06a3.17,3.17,0,0,0-.46.38,4.53,4.53,0,0,0-1.23,2.67h0a4.44,4.44,0,0,0,.78,3.22,2.33,2.33,0,0,0,1.53.93c1.54.2,3-1.37,3.24-3.47S61.88,48.11,60.35,47.92Zm1.87,3.82a3.23,3.23,0,0,1-.19.83,8.86,8.86,0,0,0-.39,1.08,1.46,1.46,0,0,1-1.15-.82,2.22,2.22,0,0,1-.26-1.24,2.29,2.29,0,0,1,.39-1.13,2.23,2.23,0,0,1,1.06-.81,3.67,3.67,0,0,1,.47,1.17A3.11,3.11,0,0,1,62.22,51.74Z"></path><path class="cls-1" d="M69.24,50.55a5,5,0,0,0-1.68.3,4.54,4.54,0,0,0-2.34,1.79,2.44,2.44,0,0,0-.34,2.13,2.34,2.34,0,0,0,1.25,1.3,4.43,4.43,0,0,0,3.31.05h0a4.54,4.54,0,0,0,2.34-1.79,2.44,2.44,0,0,0,.34-2.14A2.88,2.88,0,0,0,69.24,50.55Zm0,1.9a2.22,2.22,0,0,1-1,.79,2.28,2.28,0,0,1-1.18.15,2.22,2.22,0,0,1-1.2-.58,3.68,3.68,0,0,1,.84-.95,3.11,3.11,0,0,1,.79-.47,3.23,3.23,0,0,1,.82-.2,8.74,8.74,0,0,0,1.15-.13A1.46,1.46,0,0,1,69.21,52.45Z"></path><path class="cls-1" d="M46.47,60.69a2.34,2.34,0,0,0,.07,1.79A4.43,4.43,0,0,0,49,64.72h0a4.44,4.44,0,0,0,3.31.08,2.33,2.33,0,0,0,1.29-1.24c.58-1.43-.55-3.24-2.52-4a5,5,0,0,0-1.85-.37A2.81,2.81,0,0,0,46.47,60.69Zm4.17-.82a3.23,3.23,0,0,1,.75.4,8.78,8.78,0,0,0,.94.66,1.46,1.46,0,0,1-1.09.9A2.22,2.22,0,0,1,50,61.75a2.28,2.28,0,0,1-1-.67,2.23,2.23,0,0,1-.51-1.23,3.67,3.67,0,0,1,1.26-.15A3.11,3.11,0,0,1,50.65,59.87Z"></path><path class="cls-1" d="M46.42,57.56a4.44,4.44,0,0,0,2.41-2.27,2.33,2.33,0,0,0,0-1.79A2.8,2.8,0,0,0,46.16,52a5,5,0,0,0-1.9.39c-1.92.8-3,2.67-2.46,4.06s2.67,1.92,4.62,1.1ZM46,53.92a2.22,2.22,0,0,1-.95.84,2.29,2.29,0,0,1-1.17.21,2.23,2.23,0,0,1-1.23-.52,3.67,3.67,0,0,1,.79-1,3.11,3.11,0,0,1,.76-.51,3.22,3.22,0,0,1,.81-.24,8.76,8.76,0,0,0,1.14-.19A1.46,1.46,0,0,1,46,53.92Z"></path><path class="cls-1" d="M90.42,60.74a5,5,0,0,0-1.68.3,4.54,4.54,0,0,0-2.34,1.79,2.26,2.26,0,0,0,1.27,3.58,4.53,4.53,0,0,0,2.94-.09h0a4.44,4.44,0,0,0,2.53-2.13,2.33,2.33,0,0,0,.15-1.79A2.88,2.88,0,0,0,90.42,60.74Zm0,1.9a2.22,2.22,0,0,1-1,.79,2.28,2.28,0,0,1-1.18.15A2.23,2.23,0,0,1,87,63a3.68,3.68,0,0,1,.84-.95,3.11,3.11,0,0,1,.79-.47,3.22,3.22,0,0,1,.82-.2,8.71,8.71,0,0,0,1.15-.13A1.46,1.46,0,0,1,90.39,62.64Z"></path><path class="cls-1" d="M80.56,49.33A4.91,4.91,0,0,0,78.73,49a4,4,0,0,0-1.11.15,2.26,2.26,0,0,0-1.42,3.52,4.54,4.54,0,0,0,2.26,1.88h0a4.55,4.55,0,0,0,2.94.22,2.44,2.44,0,0,0,1.67-1.37C83.65,51.93,82.52,50.12,80.56,49.33Zm.17,2.3a2.22,2.22,0,0,1-1.27-.07,2.29,2.29,0,0,1-1-.67A2.23,2.23,0,0,1,78,49.65a3.67,3.67,0,0,1,1.26-.15,3.12,3.12,0,0,1,.9.17,3.23,3.23,0,0,1,.75.4,8.81,8.81,0,0,0,.95.66A1.46,1.46,0,0,1,80.73,51.63Z"></path><path class="cls-1" d="M22.5,51.86a2.44,2.44,0,0,0,.34-2.14A2.88,2.88,0,0,0,20,48.08a5,5,0,0,0-1.68.3,4.54,4.54,0,0,0-2.34,1.79,2.26,2.26,0,0,0,1.27,3.58,4.53,4.53,0,0,0,2.94-.09h0A4.54,4.54,0,0,0,22.5,51.86ZM19.93,50a2.22,2.22,0,0,1-1,.79,2.28,2.28,0,0,1-1.18.15,2.22,2.22,0,0,1-1.2-.58,3.67,3.67,0,0,1,.84-.95,3.11,3.11,0,0,1,.79-.47,3.22,3.22,0,0,1,.82-.2,8.71,8.71,0,0,0,1.15-.13A1.46,1.46,0,0,1,19.93,50Z"></path><path class="cls-1" d="M28.47,52a4.28,4.28,0,0,1,.24-3.34,4.69,4.69,0,0,0-4,.4,4.4,4.4,0,0,1-.54,3.84,5.87,5.87,0,0,1-.76.94,6.14,6.14,0,0,0,3.06,1.06,5.18,5.18,0,0,0,3.3-1.09A4.11,4.11,0,0,1,28.47,52Z"></path><path class="cls-1" d="M39.95,57.24a4.66,4.66,0,0,1,.9-4.73,5.18,5.18,0,0,1-1.71-.88,6.43,6.43,0,0,1-3.56,3,7,7,0,0,1-1.57.35c-.08,1.39,0,4.28,2.24,5.21.2.06,2.45.68,3.95-2.42A4,4,0,0,1,39.95,57.24Z"></path><path d="M74,60.09a5.21,5.21,0,0,0-4.61.51c-2.61,1.75-3,5.78-.84,9A7.36,7.36,0,0,0,74.39,73a4.87,4.87,0,0,0,2.74-.81,5.21,5.21,0,0,0,2.23-4.07A8.21,8.21,0,0,0,74,60.09ZM76,70.56c-1.69,1.13-4.32.2-5.85-2.09s-1.4-5.07.3-6.21a2.91,2.91,0,0,1,1.64-.48,4,4,0,0,1,1.23.21,6.22,6.22,0,0,1,4,6A3.26,3.26,0,0,1,76,70.56Z"></path><path d="M72.84,67a2.89,2.89,0,0,0-1.17-1A1.77,1.77,0,0,0,70,66a10.52,10.52,0,0,1,.63,1.19,7.2,7.2,0,0,0,.56.93A5.51,5.51,0,0,0,72,69a4.55,4.55,0,0,0,1.23.81,2.79,2.79,0,0,0,.17-1.53A3.12,3.12,0,0,0,72.84,67Z"></path><path d="M95.18,61.71c-.89-2.49-4.08-3.64-7.11-2.56a6.55,6.55,0,0,0-3.36,2.6A4.25,4.25,0,0,0,87,68.3a6,6,0,0,0,1.92.3,7,7,0,0,0,2.33-.41A6.39,6.39,0,0,0,95,65,4.32,4.32,0,0,0,95.18,61.71Zm-2,2.46a4.44,4.44,0,0,1-2.53,2.13h0a4.53,4.53,0,0,1-2.94.09,2.26,2.26,0,0,1-1.27-3.58A4.54,4.54,0,0,1,88.74,61a5,5,0,0,1,1.68-.3,2.88,2.88,0,0,1,2.88,1.64A2.33,2.33,0,0,1,93.15,64.17Z"></path><path d="M89.47,61.38a3.22,3.22,0,0,0-.82.2,3.11,3.11,0,0,0-.79.47A3.68,3.68,0,0,0,87,63a2.23,2.23,0,0,0,1.2.58,2.28,2.28,0,0,0,1.18-.15,2.22,2.22,0,0,0,1-.79,1.46,1.46,0,0,0,.22-1.4A8.71,8.71,0,0,1,89.47,61.38Z"></path><path d="M10.27,45.4a3.23,3.23,0,0,0-.82.2,3.11,3.11,0,0,0-.79.47,3.68,3.68,0,0,0-.84.95A2.22,2.22,0,0,0,9,47.6a2.28,2.28,0,0,0,1.18-.15,2.22,2.22,0,0,0,1-.79,1.46,1.46,0,0,0,.22-1.4A8.7,8.7,0,0,1,10.27,45.4Z"></path><path d="M44.12,37.57a2.22,2.22,0,0,0,1-.79,1.46,1.46,0,0,0,.22-1.4,8.69,8.69,0,0,1-1.14.13,3.22,3.22,0,0,0-.82.2,3.11,3.11,0,0,0-.79.47,3.68,3.68,0,0,0-.84.95,2.22,2.22,0,0,0,1.2.58A2.28,2.28,0,0,0,44.12,37.57Z"></path><path d="M57.2,41.47a3.22,3.22,0,0,0-.82.2,3.11,3.11,0,0,0-.79.47,3.67,3.67,0,0,0-.84.95,2.22,2.22,0,0,0,1.2.58,2.28,2.28,0,0,0,1.18-.15,2.22,2.22,0,0,0,1-.79,1.46,1.46,0,0,0,.22-1.4A8.71,8.71,0,0,1,57.2,41.47Z"></path><path d="M54.86,36.5a2.22,2.22,0,0,0,1-.79,1.46,1.46,0,0,0,.22-1.4,8.74,8.74,0,0,1-1.15.13,3.23,3.23,0,0,0-.82.2,3.11,3.11,0,0,0-.79.47,3.68,3.68,0,0,0-.84.95,2.22,2.22,0,0,0,1.2.58A2.28,2.28,0,0,0,54.86,36.5Z"></path><path d="M73,42.87a3.67,3.67,0,0,0-.84.95,2.23,2.23,0,0,0,1.2.58,2.28,2.28,0,0,0,1.18-.15,2.22,2.22,0,0,0,1-.79,1.46,1.46,0,0,0,.22-1.4,8.75,8.75,0,0,1-1.15.13,3.22,3.22,0,0,0-.82.2A3.11,3.11,0,0,0,73,42.87Z"></path><path d="M68.29,51.19a3.23,3.23,0,0,0-.82.2,3.11,3.11,0,0,0-.79.47,3.68,3.68,0,0,0-.84.95,2.22,2.22,0,0,0,1.2.58,2.28,2.28,0,0,0,1.18-.15,2.22,2.22,0,0,0,1-.79,1.46,1.46,0,0,0,.22-1.4A8.74,8.74,0,0,1,68.29,51.19Z"></path><path d="M45,52.71a3.22,3.22,0,0,0-.81.24,3.11,3.11,0,0,0-.76.51,3.67,3.67,0,0,0-.79,1,2.23,2.23,0,0,0,1.23.52A2.29,2.29,0,0,0,45,54.76a2.22,2.22,0,0,0,.95-.84,1.46,1.46,0,0,0,.14-1.41A8.76,8.76,0,0,1,45,52.71Z"></path><path d="M29.19,37.44a2.22,2.22,0,0,0,1.27.07,1.46,1.46,0,0,0,1.09-.9A8.81,8.81,0,0,1,30.6,36a3.23,3.23,0,0,0-.75-.4,3.12,3.12,0,0,0-.9-.17,3.68,3.68,0,0,0-1.26.15,2.23,2.23,0,0,0,.51,1.23A2.29,2.29,0,0,0,29.19,37.44Z"></path><path d="M81.31,47.48a7,7,0,0,0-2-.48,5.79,5.79,0,0,0,.46-.6,4.39,4.39,0,0,0,.53-3.88c-.76-2.12-3.18-3.25-5.76-2.88a7,7,0,0,0,.28-1.26c.39-3.2-1.43-6.06-4.06-6.37a4.39,4.39,0,0,0-3.66,1.37,6.22,6.22,0,0,0-1.42,2.32,8.31,8.31,0,0,0-5-.8l0-.11c-.89-2.49-4.08-3.64-7.11-2.56a6.55,6.55,0,0,0-3.36,2.6,5.27,5.27,0,0,0-.4.77c-1-2.28-4-3.32-6.89-2.34a6.94,6.94,0,0,0-6-4.08,6.17,6.17,0,0,0-6.25,4.07c-2.89-1-5.92,0-6.87,2.37a4.16,4.16,0,0,0-.14,2.63,6.69,6.69,0,0,0-3.4.31,6.54,6.54,0,0,0-3.36,2.6A4.4,4.4,0,0,0,16.39,45a4.08,4.08,0,0,0,1,1.55,7,7,0,0,0-1.17.6A4.06,4.06,0,0,0,16,45.73c-.89-2.49-4.08-3.64-7.11-2.56a6.55,6.55,0,0,0-3.36,2.6A4.39,4.39,0,0,0,5,49.65a4.32,4.32,0,0,0,2.27,2.43,5.84,5.84,0,0,0,2.5.54,6.82,6.82,0,0,0,3.73-1.11A4.06,4.06,0,0,0,13.72,53a4.39,4.39,0,0,0,2.86,2.67,6,6,0,0,0,1.92.3,7,7,0,0,0,2.33-.41,7.15,7.15,0,0,0,.92-.41,9.37,9.37,0,0,0,2.52,1.39,7.38,7.38,0,0,0,2.42.42,7.47,7.47,0,0,0,5.07-2.13l.25.06c-.1,1.86.12,5.71,3.52,7.14a4.29,4.29,0,0,0,1.4.22,5.45,5.45,0,0,0,4.75-3,5.58,5.58,0,0,0,2.87.76h.07a4.33,4.33,0,0,0,.09,3.32,6.38,6.38,0,0,0,3.54,3.31,6.93,6.93,0,0,0,2.58.51,5.76,5.76,0,0,0,2.26-.45,4.31,4.31,0,0,0,2.36-2.33c1-2.45-.64-5.43-3.62-6.63A6.91,6.91,0,0,0,50,57.23a5.64,5.64,0,0,0,.49-.79,9,9,0,0,0,3.9,1,4.72,4.72,0,0,0,2.75-.82,4.13,4.13,0,0,0,2,.87l.48,0a4.64,4.64,0,0,0,3.5-1.79,4.36,4.36,0,0,0,2.11,2.1,5.83,5.83,0,0,0,2.5.54A7,7,0,0,0,70.11,58a6.54,6.54,0,0,0,3.36-2.6,4.76,4.76,0,0,0,.75-2.24q.11.24.25.48a6.54,6.54,0,0,0,3.25,2.74,6.92,6.92,0,0,0,2.58.51A6,6,0,0,0,82,56.66a4.39,4.39,0,0,0,3-2.55C85.92,51.66,84.29,48.68,81.31,47.48Zm-5.79-5.92A2.88,2.88,0,0,1,78.4,43.2a2.44,2.44,0,0,1-.34,2.14,4.54,4.54,0,0,1-2.34,1.79h0a4.43,4.43,0,0,1-3.31-.05,2.33,2.33,0,0,1-1.24-1.29,2.44,2.44,0,0,1,.34-2.13,3.93,3.93,0,0,1,.6-.72,5.14,5.14,0,0,0,.75-.58,5.07,5.07,0,0,1,1-.49A5,5,0,0,1,75.52,41.56ZM58,46.5a4.43,4.43,0,0,1-2.56,0,2.26,2.26,0,0,1-1.27-3.58,4.25,4.25,0,0,1,1.42-1.34,6.65,6.65,0,0,0,2.07-.7,4.89,4.89,0,0,1,.52,0A2.89,2.89,0,0,1,61,42.47a2.44,2.44,0,0,1-.34,2.14A4.29,4.29,0,0,1,59.17,46,4.37,4.37,0,0,0,58,46.5Zm4.41-.82A5,5,0,0,0,63,44.16a3.87,3.87,0,0,1,4-1.67,4.19,4.19,0,0,0,2.31,1.11,4.19,4.19,0,0,0,0,2.85,4,4,0,0,0,.21.44,5.73,5.73,0,0,1-5.2,2.26,5,5,0,0,0-2.4-2.82A5.8,5.8,0,0,0,62.38,45.68Zm4.89-8.21h0A4.54,4.54,0,0,1,68.5,34.8,2.53,2.53,0,0,1,70.27,34h.24c1.53.19,2.57,2,2.31,4.15a4.65,4.65,0,0,1-1.12,2.57,6.56,6.56,0,0,0-.84.64,2.2,2.2,0,0,1-1.29.26A2.33,2.33,0,0,1,68,40.69,4.44,4.44,0,0,1,67.27,37.47Zm-2,.33a6.68,6.68,0,0,0,.42,2.67,5.86,5.86,0,0,0-2.88,1.08,4.52,4.52,0,0,0-3-2.46c.11-.14.23-.28.33-.43a4.91,4.91,0,0,0,.69-1.76A6.06,6.06,0,0,1,65.24,37.8ZM51.87,35.9a4.54,4.54,0,0,1,2.34-1.79,5,5,0,0,1,1.68-.3,2.88,2.88,0,0,1,2.88,1.64,2.44,2.44,0,0,1-.34,2.13A4.25,4.25,0,0,1,57,38.94a7,7,0,0,0-1.2.31,7.16,7.16,0,0,0-.86.38,4.06,4.06,0,0,1-2.17-.3A2.33,2.33,0,0,1,51.53,38,2.44,2.44,0,0,1,51.87,35.9Zm-2.49,3.83a5.28,5.28,0,0,0,.39-.76,4.35,4.35,0,0,0,2.15,2.17,5.41,5.41,0,0,0,.84.3c-.1.14-.22.26-.31.41a5.08,5.08,0,0,0-.58,1.3,6.09,6.09,0,0,0-5.64-.65,7.15,7.15,0,0,0-1.05.47c-.05-.12-.11-.25-.18-.37a7.15,7.15,0,0,0,1-.27A6.55,6.55,0,0,0,49.38,39.73Zm-9.69,9.61a4,4,0,0,0-.21-1.23,4.15,4.15,0,0,0-1.65-2,4.76,4.76,0,0,1,1.62-3.43,2.3,2.3,0,0,1,2-.31l.13,0,.15.07.11,0a2.25,2.25,0,0,1,1.6,1.82,5.81,5.81,0,0,0-.63.82A4.39,4.39,0,0,0,42.32,49a4.11,4.11,0,0,0,1.08,1.6A3.24,3.24,0,0,1,39.68,49.34ZM32,52.8a2.26,2.26,0,0,1-1.27-3.58A4.54,4.54,0,0,1,33,47.43a5,5,0,0,1,1.67-.3,2.88,2.88,0,0,1,2.88,1.64,2.33,2.33,0,0,1-.15,1.79,4.44,4.44,0,0,1-2.53,2.13h0A4.52,4.52,0,0,1,32,52.8ZM26.86,45a4.63,4.63,0,0,0,.76-2.68l.31.11a5.28,5.28,0,0,0,1.14,4.28,6.87,6.87,0,0,0-3.89,0A6.14,6.14,0,0,0,26.86,45Zm7.8-5a4,4,0,0,0,.21-.74,7,7,0,0,0,2.23.39,5.44,5.44,0,0,0,1.69-.27,3.4,3.4,0,0,0,.48,1.12,4.21,4.21,0,0,0-1,.51,6.45,6.45,0,0,0-2.38,4.27,6.65,6.65,0,0,0-3.53.27,7.1,7.1,0,0,0-1.2.57c-1.38-1.51-1.42-2.71-1.27-3.36H30a5.78,5.78,0,0,0,2.27-.45A4.31,4.31,0,0,0,34.65,40Zm14.11,9.66h0a4.42,4.42,0,0,1-3.31-.05,2.33,2.33,0,0,1-1.25-1.3,2.44,2.44,0,0,1,.34-2.13,4.54,4.54,0,0,1,2.34-1.79,5,5,0,0,1,1.68-.3,2.88,2.88,0,0,1,2.88,1.64,2.33,2.33,0,0,1-.15,1.79A4.44,4.44,0,0,1,48.76,49.65ZM45.14,34.88A2.88,2.88,0,0,1,48,36.52a2.44,2.44,0,0,1-.34,2.13,4.54,4.54,0,0,1-2.34,1.79h0a4.54,4.54,0,0,1-2.91.1l-.1,0A2.25,2.25,0,0,1,41.13,37a4.54,4.54,0,0,1,2.34-1.79A5,5,0,0,1,45.14,34.88Zm-8.35-3.7a4.88,4.88,0,0,1,4.31,3,6.14,6.14,0,0,0-1.67,1.71,5.1,5.1,0,0,0-.57,1.24A4.37,4.37,0,0,1,34.68,37a6,6,0,0,0-2.19-2.85A4.21,4.21,0,0,1,36.8,31.18ZM25.68,36.38a2.82,2.82,0,0,1,2.76-1.53,5,5,0,0,1,1.85.37c2,.79,3.09,2.6,2.51,4a2.33,2.33,0,0,1-1.29,1.24,4.44,4.44,0,0,1-3.31-.08h0a4.53,4.53,0,0,1-2.26-1.88A2.44,2.44,0,0,1,25.68,36.38Zm-7.07,5.86a4.55,4.55,0,0,1,2.34-1.79,5,5,0,0,1,1.68-.3A2.88,2.88,0,0,1,25.5,41.8a2.44,2.44,0,0,1-.34,2.14,4.54,4.54,0,0,1-2.34,1.79h0a4.54,4.54,0,0,1-2.94.1,2.26,2.26,0,0,1-1.27-3.58Zm-7.18,8.09h0a4.43,4.43,0,0,1-3.31-.05A2.34,2.34,0,0,1,6.87,49a2.44,2.44,0,0,1,.34-2.13,4.55,4.55,0,0,1,2.34-1.79,5,5,0,0,1,1.68-.3A2.88,2.88,0,0,1,14.1,46.4a2.44,2.44,0,0,1-.34,2.13A4.54,4.54,0,0,1,11.42,50.33Zm8.73,3.32h0a4.53,4.53,0,0,1-2.94.09,2.26,2.26,0,0,1-1.27-3.58,4.54,4.54,0,0,1,2.34-1.79,5,5,0,0,1,1.68-.3,2.88,2.88,0,0,1,2.88,1.64,2.44,2.44,0,0,1-.34,2.14A4.54,4.54,0,0,1,20.16,53.65Zm6.33,1.28a6.14,6.14,0,0,1-3.06-1.06,5.87,5.87,0,0,0,.76-.94,4.4,4.4,0,0,0,.54-3.84,4.69,4.69,0,0,1,4-.4A4.28,4.28,0,0,0,28.47,52a4.11,4.11,0,0,0,1.32,1.81A5.18,5.18,0,0,1,26.49,54.93Zm9.77,5.21C34,59.21,33.93,56.32,34,54.93a7,7,0,0,0,1.57-.35,6.43,6.43,0,0,0,3.56-3,5.18,5.18,0,0,0,1.71.88,4.66,4.66,0,0,0-.9,4.73,4,4,0,0,0,.25.48C38.7,60.82,36.45,60.2,36.25,60.14Zm5.54-3.67c-.58-1.4.54-3.26,2.46-4.06a5,5,0,0,1,1.9-.39,2.8,2.8,0,0,1,2.72,1.49,2.33,2.33,0,0,1,0,1.79,4.44,4.44,0,0,1-2.41,2.27h0C44.46,58.38,42.39,57.89,41.79,56.47Zm11.8,7.09A2.33,2.33,0,0,1,52.3,64.8,4.44,4.44,0,0,1,49,64.72h0a4.43,4.43,0,0,1-2.44-2.23,2.34,2.34,0,0,1-.07-1.79,2.81,2.81,0,0,1,2.76-1.53,5,5,0,0,1,1.85.37C53,60.32,54.17,62.13,53.6,63.56ZM51,54.45a4.08,4.08,0,0,0-.3-1.72,4,4,0,0,0-.95-1.33,6.3,6.3,0,0,0,3.33-3,4.8,4.8,0,0,0,.27-.74,5,5,0,0,0,1.4.75,5.87,5.87,0,0,0,1.18.25,6.86,6.86,0,0,0-.83,2.52,6.59,6.59,0,0,0,.72,4C54.24,56,52,55,51,54.45Zm11.64-2.38c-.26,2.1-1.7,3.68-3.24,3.47a2.33,2.33,0,0,1-1.53-.93,4.44,4.44,0,0,1-.78-3.22h0a4.53,4.53,0,0,1,1.23-2.67,3.17,3.17,0,0,1,.46-.38l.22-.06a7.14,7.14,0,0,0,.76-.34,2.08,2.08,0,0,1,.33,0h.24C61.88,48.11,62.91,50,62.66,52.07Zm9.12,2.26a4.54,4.54,0,0,1-2.34,1.79h0a4.43,4.43,0,0,1-3.31-.05,2.34,2.34,0,0,1-1.25-1.3,2.44,2.44,0,0,1,.34-2.13,4.54,4.54,0,0,1,2.34-1.79,5,5,0,0,1,1.68-.3,2.88,2.88,0,0,1,2.88,1.64A2.44,2.44,0,0,1,71.78,54.33Zm-1.22-5.6c.09-.09.18-.18.26-.28a4.82,4.82,0,0,0,.73.43,5.84,5.84,0,0,0,2.5.54l.24,0c-.06.12-.14.22-.19.35a4.07,4.07,0,0,0-.29,1.39A4.63,4.63,0,0,0,70.56,48.72Zm12.51,4.64a2.44,2.44,0,0,1-1.67,1.37,4.55,4.55,0,0,1-2.94-.22h0a4.54,4.54,0,0,1-2.26-1.88,2.26,2.26,0,0,1,1.42-3.52A4,4,0,0,1,78.73,49a4.91,4.91,0,0,1,1.83.37C82.52,50.12,83.65,51.93,83.08,53.36Z"></path><path d="M80.13,49.67a3.12,3.12,0,0,0-.9-.17,3.67,3.67,0,0,0-1.26.15,2.23,2.23,0,0,0,.51,1.23,2.29,2.29,0,0,0,1,.67,2.22,2.22,0,0,0,1.27.07,1.46,1.46,0,0,0,1.09-.9,8.81,8.81,0,0,1-.95-.66A3.23,3.23,0,0,0,80.13,49.67Z"></path><path d="M49,61.08a2.28,2.28,0,0,0,1,.67,2.22,2.22,0,0,0,1.27.07,1.46,1.46,0,0,0,1.09-.9,8.78,8.78,0,0,1-.94-.66,3.23,3.23,0,0,0-.75-.4,3.11,3.11,0,0,0-.9-.17,3.67,3.67,0,0,0-1.26.15A2.23,2.23,0,0,0,49,61.08Z"></path><path d="M60.62,50.46a2.29,2.29,0,0,0-.39,1.13,2.22,2.22,0,0,0,.26,1.24,1.46,1.46,0,0,0,1.15.82A8.86,8.86,0,0,1,62,52.56a3.23,3.23,0,0,0,.19-.83,3.11,3.11,0,0,0-.07-.92,3.67,3.67,0,0,0-.47-1.17A2.23,2.23,0,0,0,60.62,50.46Z"></path><path d="M71.8,39.73a8.81,8.81,0,0,1,.39-1.08,3.23,3.23,0,0,0,.19-.83,3.11,3.11,0,0,0-.07-.92,3.67,3.67,0,0,0-.47-1.17,2.23,2.23,0,0,0-1.06.81,2.29,2.29,0,0,0-.39,1.13,2.22,2.22,0,0,0,.26,1.24A1.46,1.46,0,0,0,71.8,39.73Z"></path><path d="M34.9,47.65a8.77,8.77,0,0,1-1.15.13,3.23,3.23,0,0,0-.82.2,3.11,3.11,0,0,0-.79.47,3.67,3.67,0,0,0-.84.95,2.23,2.23,0,0,0,1.2.58,2.28,2.28,0,0,0,1.18-.15,2.22,2.22,0,0,0,1-.79A1.46,1.46,0,0,0,34.9,47.65Z"></path><path d="M47.61,44.72a3.22,3.22,0,0,0-.82.2,3.11,3.11,0,0,0-.79.47,3.67,3.67,0,0,0-.84.95,2.23,2.23,0,0,0,1.2.58,2.28,2.28,0,0,0,1.18-.15,2.22,2.22,0,0,0,1-.79,1.46,1.46,0,0,0,.22-1.4A8.75,8.75,0,0,1,47.61,44.72Z"></path><path d="M21.6,42.84a2.22,2.22,0,0,0,1-.79,1.46,1.46,0,0,0,.22-1.4,8.7,8.7,0,0,1-1.14.13,3.23,3.23,0,0,0-.82.2,3.11,3.11,0,0,0-.79.47,3.67,3.67,0,0,0-.84.95,2.22,2.22,0,0,0,1.2.58A2.28,2.28,0,0,0,21.6,42.84Z"></path><path d="M19,48.72a3.22,3.22,0,0,0-.82.2,3.11,3.11,0,0,0-.79.47,3.67,3.67,0,0,0-.84.95,2.22,2.22,0,0,0,1.2.58,2.28,2.28,0,0,0,1.18-.15,2.22,2.22,0,0,0,1-.79,1.46,1.46,0,0,0,.22-1.4A8.71,8.71,0,0,1,19,48.72Z"></path><path d="M33.33,67A6.55,6.55,0,0,0,30,69.62a4.25,4.25,0,0,0,2.33,6.54,6,6,0,0,0,1.92.3A7,7,0,0,0,36.54,76a6.39,6.39,0,0,0,3.67-3.16,4.33,4.33,0,0,0,.22-3.32C39.55,67.08,36.36,65.93,33.33,67Zm5.08,5a4.44,4.44,0,0,1-2.53,2.13h0a4.54,4.54,0,0,1-2.94.09,2.26,2.26,0,0,1-1.27-3.58A4.54,4.54,0,0,1,34,68.9a5,5,0,0,1,1.68-.3,2.88,2.88,0,0,1,2.88,1.64A2.33,2.33,0,0,1,38.41,72Z"></path><path d="M34.72,69.24a3.22,3.22,0,0,0-.82.2,3.11,3.11,0,0,0-.79.47,3.67,3.67,0,0,0-.84.95,2.23,2.23,0,0,0,1.2.58,2.28,2.28,0,0,0,1.18-.15,2.22,2.22,0,0,0,1-.79,1.46,1.46,0,0,0,.22-1.4A8.76,8.76,0,0,1,34.72,69.24Z"></path></svg>