<svg height='100px' width='100px'  fill="#053f0f" xmlns="http://www.w3.org/2000/svg" xmlns:xlink="http://www.w3.org/1999/xlink" version="1.1" x="0px" y="0px" viewBox="0 0 1024 1024" style="enable-background:new 0 0 1024 1024;" xml:space="preserve"><g><g><g><g><path d="M725.4,737.2c20.6-20.6,41.2-41.2,61.8-61.8c32.8-32.8,65.6-65.6,98.4-98.4c7.5-7.5,15-15,22.5-22.5      c22.9-22.9,23-61.9,0-84.9c-20.6-20.6-41.2-41.2-61.8-61.8c-32.8-32.8-65.6-65.6-98.4-98.4c-7.5-7.5-15-15-22.5-22.5      c-10.9-10.9-27-17.6-42.4-17.6c-14.7,0-32.3,6.5-42.4,17.6c-10.5,11.4-18.3,26.4-17.6,42.4c0.7,15.9,6.1,30.9,17.6,42.4      c20.6,20.6,41.2,41.2,61.8,61.8c32.8,32.8,65.6,65.6,98.4,98.4c7.5,7.5,15,15,22.5,22.5c0-28.3,0-56.6,0-84.9      c-20.6,20.6-41.2,41.2-61.8,61.8c-32.8,32.8-65.6,65.6-98.4,98.4c-7.5,7.5-15,15-22.5,22.5c-10.9,10.9-17.6,27-17.6,42.4      c0,14.7,6.5,32.3,17.6,42.4c11.4,10.5,26.4,18.3,42.4,17.6C698.9,754,713.9,748.7,725.4,737.2L725.4,737.2z"></path></g></g><g><g><path d="M865.8,452c-17.2,0-34.4,0-51.6,0c-41.3,0-82.7,0-124,0c-50,0-100,0-150,0c-43.1,0-86.1,0-129.2,0      c-21,0-41.9-0.2-62.9,0c-0.3,0-0.6,0-0.9,0c-15.4,0-31.5,6.7-42.4,17.6c-10.4,10.4-18.2,27.5-17.6,42.4      c0.7,15.5,5.8,31.6,17.6,42.4c11.7,10.8,26.2,17.6,42.4,17.6c17.2,0,34.4,0,51.6,0c41.3,0,82.7,0,124,0c50,0,100,0,150,0      c43.1,0,86.1,0,129.2,0c21,0,41.9,0.2,62.9,0c0.3,0,0.6,0,0.9,0c15.4,0,31.5-6.7,42.4-17.6c10.4-10.4,18.2-27.5,17.6-42.4      c-0.7-15.5-5.8-31.6-17.6-42.4C896.5,458.8,882.1,452,865.8,452L865.8,452z"></path></g></g></g><g><g><path d="M799.5,800.1c0,14.5,0,29,0,43.5c0,9.5,0,18.9,0,28.4c0,5.7,0.2,11.4-0.5,17c0.7-5.3,1.4-10.6,2.1-16     c-0.7,4-1.7,7.9-3.3,11.6c2-4.8,4-9.6,6-14.3c-1.6,3.6-3.6,7-6,10.2c3.1-4,6.3-8.1,9.4-12.1c-2.5,3.1-5.2,5.8-8.3,8.3     c4-3.1,8.1-6.3,12.1-9.4c-3.2,2.4-6.5,4.4-10.2,6c4.8-2,9.6-4,14.3-6c-3.8,1.6-7.6,2.7-11.6,3.3c5.3-0.7,10.6-1.4,16-2.1     c-7.1,1-14.6,0.5-21.8,0.5c-14.6,0-29.1,0-43.7,0c-48.7,0-97.3,0-146,0c-59.1,0-118.3,0-177.4,0c-50.9,0-101.9,0-152.8,0     c-24.1,0-48.1,0.1-72.2,0c-2.5,0-5-0.2-7.6-0.5c5.3,0.7,10.6,1.4,16,2.1c-4-0.7-7.9-1.7-11.6-3.3c4.8,2,9.6,4,14.3,6     c-3.6-1.6-7-3.6-10.2-6c4,3.1,8.1,6.3,12.1,9.4c-3.1-2.5-5.8-5.2-8.3-8.3c3.1,4,6.3,8.1,9.4,12.1c-2.4-3.2-4.4-6.6-6-10.2     c2,4.8,4,9.6,6,14.3c-1.6-3.8-2.7-7.6-3.3-11.6c0.7,5.3,1.4,10.6,2.1,16c-1.1-8.3-0.5-17-0.5-25.3c0-17.8,0-35.6,0-53.4     c0-26.6,0-53.3,0-79.9c0-32.5,0-65,0-97.5c0-35.8,0-71.6,0-107.4c0-36.2,0-72.3,0-108.5c0-33.7,0-67.3,0-101     c0-28.4,0-56.7,0-85.1c0-20.2,0-40.4,0-60.6c0-9.2,0-18.4,0-27.6c0-2.6,0.2-5.2,0.5-7.8c-0.7,5.3-1.4,10.6-2.1,16     c0.7-4,1.7-7.9,3.3-11.6c-2,4.8-4,9.6-6,14.3c1.6-3.6,3.6-7,6-10.2c-3.1,4-6.3,8.1-9.4,12.1c2.5-3.1,5.2-5.8,8.3-8.3     c-4,3.1-8.1,6.3-12.1,9.4c3.2-2.4,6.6-4.4,10.2-6c-4.8,2-9.6,4-14.3,6c3.8-1.6,7.6-2.7,11.6-3.3c-5.3,0.7-10.6,1.4-16,2.1     c7.1-1,14.6-0.5,21.8-0.5c14.6,0,29.1,0,43.7,0c48.7,0,97.3,0,146,0c59.1,0,118.3,0,177.4,0c50.9,0,101.9,0,152.8,0     c24.1,0,48.1-0.1,72.2,0c2.5,0,5,0.2,7.6,0.5c-5.3-0.7-10.6-1.4-16-2.1c4,0.7,7.9,1.7,11.6,3.3c-4.8-2-9.6-4-14.3-6     c3.6,1.6,7,3.6,10.2,6c-4-3.1-8.1-6.3-12.1-9.4c3.1,2.5,5.8,5.2,8.3,8.3c-3.1-4-6.3-8.1-9.4-12.1c2.4,3.2,4.4,6.6,6,10.2     c-2-4.8-4-9.6-6-14.3c1.6,3.8,2.7,7.6,3.3,11.6c-0.7-5.3-1.4-10.6-2.1-16c0.8,5.6,0.5,11.4,0.5,17c0,9.5,0,18.9,0,28.4     c0,14.5,0,29,0,43.5c0,15.4,6.7,31.5,17.6,42.4c10.4,10.4,27.5,18.2,42.4,17.6c15.5-0.7,31.6-5.8,42.4-17.6     c10.8-11.7,17.6-26.2,17.6-42.4c0-20.8,0-41.7,0-62.5c0-7.8,0.5-15.9-0.2-23.7c-1.7-19-5.8-37.9-17.1-53.8     c-10.7-15-23.3-28.5-40.2-36.6C845.6,39.4,829.7,35,811.3,35c-2.7,0-5.3,0-8,0c-11.7,0-23.4,0-35.1,0c-41.9,0-83.8,0-125.6,0     c-54.2,0-108.4,0-162.6,0c-51.6,0-103.2,0-154.8,0c-34.2,0-68.3,0-102.5,0c-5.8,0-11.5-0.1-17.3,0c-28.5,0.3-58.9,11.8-78,33.7     c-5.8,6.7-11.9,13.9-16,22c-4.2,8.4-8.5,17.6-10.3,27c-1.5,8-2.8,16.4-2.9,24.6c-0.2,17.4,0,34.8,0,52.2c0,39.9,0,79.9,0,119.8     c0,52.4,0,104.9,0,157.3c0,55,0,110.1,0,165.1c0,47.3,0,94.7,0,142c0,29.5,0,58.9,0,88.4c0,4.9-0.1,9.9,0,14.8     c0.1,9.5,1.3,19.3,3.8,28.4c2.4,8.8,6.1,17.5,10.6,25.4c2.4,4.1,5.5,7.8,8.3,11.5c2.9,3.8,5.6,7.6,9.1,11     c20.2,19.7,47.2,30.6,75.4,30.9c20.2,0.2,40.5,0,60.7,0c45.1,0,90.3,0,135.4,0c55,0,110,0,165,0c49.6,0,99.3,0,148.9,0     c29.5,0,59.1,0,88.6,0c21.7,0,42.9-3.3,62.1-14.4c15.7-9,29.4-22.9,38.6-38.4c9.6-16.3,14.5-35.3,14.7-54.2     c0.1-7.4,0-14.8,0-22.1c0-19.9,0-39.9,0-59.8c0-15.4-6.7-31.5-17.6-42.4c-10.4-10.4-27.5-18.2-42.4-17.6     c-15.5,0.7-31.6,5.8-42.4,17.6C806.3,769.4,799.5,783.9,799.5,800.1L799.5,800.1z"></path></g></g></g></svg>