<svg height='100px' width='100px'  fill="#053f0f" xmlns="http://www.w3.org/2000/svg" xmlns:xlink="http://www.w3.org/1999/xlink" version="1.1" x="0px" y="0px" viewBox="0 0 100 100" style="enable-background:new 0 0 100 100;" xml:space="preserve"><g><path d="M50,94c5.2,0,9.4-3.9,9.9-9H40.1C40.6,90.1,44.8,94,50,94z"></path><path d="M79,67v-2V47.2c0-7.2-2.7-14.1-7.7-19.3h0c-1.6-1.7-3.4-3.2-5.3-4.4c0,0-5-2.8-8.5-3.6c-0.1,0-0.2,0-0.3-0.1   c0.2-0.7,0.3-1.5,0.3-2.2c0-4.1-3.4-7.5-7.5-7.5s-7.5,3.4-7.5,7.5c0,0.8,0.1,1.5,0.4,2.2c-5.4,1.2-10.3,4-14.2,8.1h0   C23.7,33.1,21,40,21,47.2V63h45c1.1,0,2,0.9,2,2s-0.9,2-2,2H21c-3.8,0-7,3.1-7,7c0,3.8,3.2,7,7,7h8h11.5h10.4H76h3c3.8,0,7-3.2,7-7   C86,70.1,82.8,67,79,67z"></path></g></svg>