<svg height='100px' width='100px'  fill="#FFFFFF" xmlns:x="http://ns.adobe.com/Extensibility/1.0/" xmlns:i="http://ns.adobe.com/AdobeIllustrator/10.0/" xmlns:graph="http://ns.adobe.com/Graphs/1.0/" xmlns="http://www.w3.org/2000/svg" xmlns:xlink="http://www.w3.org/1999/xlink" xmlns:a="http://ns.adobe.com/AdobeSVGViewerExtensions/3.0/" version="1.1" x="0px" y="0px" viewBox="0 0 100 100" enable-background="new 0 0 100 100" xml:space="preserve"><metadata><?xpacket begin="&#65279;" id="W5M0MpCehiHzreSzNTczkc9d"?><x:xmpmeta xmlns:x="adobe:ns:meta/" x:xmptk="Adobe XMP Core 5.5-c014 79.151739, 2013/04/03-12:12:15        "></x:xmpmeta><?xpacket end="w"?></metadata><path d="M56.4518433,42.1296997C62.0673828,39.6431274,66,34.026062,66,27.5c0-8.8222656-7.1777344-16-16-16s-16,7.1777344-16,16  c0,6.526062,3.9326782,12.1431274,9.5482178,14.6296997C28.1533813,45.1459961,16.5,58.7348633,16.5,75  c0,4.4711914,0.8671875,8.8066406,2.5776367,12.8867188C19.2333984,88.2583008,19.597168,88.5,20,88.5h30h30  c0.402832,0,0.7666016-0.2416992,0.9223633-0.6132813C82.6328125,83.8066406,83.5,79.4711914,83.5,75  C83.5,58.7348633,71.8466797,45.1460571,56.4518433,42.1296997z M36,27.5c0-7.7197266,6.2802734-14,14-14s14,6.2802734,14,14  s-6.2802734,14-14,14S36,35.2197266,36,27.5z M53.2952881,43.6730347L51.8818359,46.5h-3.7636719l-1.4134521-2.8269653  C47.788147,43.5598755,48.887146,43.5,50,43.5S52.211853,43.5598755,53.2952881,43.6730347z M20.6728516,86.5  C19.2304688,82.8461914,18.5,78.9804688,18.5,75c0-15.5332031,11.3045654-28.4675903,26.1167603-31.0302734l1.828064,3.6557617  l-7.4194336,32.1494141c-0.0888672,0.3857422,0.0581055,0.7875977,0.3745117,1.0249023L47.0001831,86.5H20.6728516z   M41.1206055,79.590332L48.2957764,48.5h3.4084473l7.1751709,31.090332L50,86.25L41.1206055,79.590332z M79.3271484,86.5H52.9998169  l7.6002808-5.7001953c0.3164063-0.2373047,0.4633789-0.6391602,0.3745117-1.0249023l-7.4194336-32.1494141l1.828064-3.6557617  C70.1954346,46.5324097,81.5,59.4667969,81.5,75C81.5,78.9804688,80.7695313,82.8461914,79.3271484,86.5z"></path></svg>