<svg height='100px' width='100px'  fill="#053f0f" xmlns="http://www.w3.org/2000/svg" xmlns:xlink="http://www.w3.org/1999/xlink" version="1.1" x="0px" y="0px" viewBox="0 0 100 100" enable-background="new 0 0 100 100" xml:space="preserve"><path d="M95,32.2c0-0.1,0-0.2,0-0.2c0-0.1,0-0.2-0.1-0.2c0-0.1-0.1-0.2-0.1-0.2c0-0.1-0.1-0.1-0.1-0.2c0-0.1-0.1-0.1-0.1-0.2  c0-0.1-0.1-0.1-0.2-0.2c-0.1-0.1-0.1-0.1-0.2-0.2c-0.1-0.1-0.1-0.1-0.2-0.1c-0.1-0.1-0.1-0.1-0.2-0.2c0,0,0,0-0.1,0  c0,0-0.1,0-0.1-0.1c-0.1,0-0.2-0.1-0.2-0.1c-0.1,0-0.2-0.1-0.2-0.1c-0.1,0-0.2,0-0.2-0.1c-0.1,0-0.2,0-0.3,0c0,0-0.1,0-0.1,0h-15  c0,0,0,0,0,0H34.8l-1-10.2c-0.1-1.3-1.2-2.3-2.5-2.3h-8.8c-1.4,0-2.5,1.1-2.5,2.5s1.1,2.5,2.5,2.5H29l1,10.2L32.5,62l-1.5,3.1  C30.6,65,30.3,65,30,65c-4.1,0-7.5,3.4-7.5,7.5S25.9,80,30,80c3.3,0,6-2.1,7.1-5h35.9c1,2.9,3.8,5,7.1,5c4.1,0,7.5-3.4,7.5-7.5  S84.1,65,80,65c-3.3,0-6,2.1-7.1,5H37.1c-0.4-1-0.9-1.9-1.7-2.7l1.2-2.3H55c0,0,0,0,0,0c0,0,0,0,0,0h10c0,0,0,0,0,0c0,0,0,0,0,0h10  c0.9,0,1.7-0.5,2.2-1.2l17.5-30c0,0,0-0.1,0.1-0.1c0-0.1,0.1-0.2,0.1-0.3c0-0.1,0-0.2,0.1-0.2c0-0.1,0-0.2,0.1-0.2  c0-0.1,0-0.2,0-0.3c0,0,0-0.1,0-0.1c0,0,0-0.1,0-0.1C95,32.3,95,32.2,95,32.2z M30,75c-1.4,0-2.5-1.1-2.5-2.5S28.6,70,30,70  s2.5,1.1,2.5,2.5S31.4,75,30,75z M80,70c1.4,0,2.5,1.1,2.5,2.5S81.4,75,80,75s-2.5-1.1-2.5-2.5S78.6,70,80,70z M64.5,35h9.3l-2.1,5  h-8.5L64.5,35z M42.7,60h-5.4l-0.4-5h6.2L42.7,60z M43.5,50h-7.1L36,45h7.9L43.5,50z M44.4,40h-8.7l-0.4-5h9.6L44.4,40z M53,60h-5.3  l0.4-5h6.2L53,60z M55.5,50h-7l0.4-5h7.8L55.5,50z M49.4,40l0.4-5h9.5L58,40H49.4z M63.3,60h-5.1l1.3-5h6L63.3,60z M60.7,50l1.3-5  h7.6l-2.1,5H60.7z M73.6,60h-4.8l2.1-5h5.6L73.6,60z M79.4,50h-6.5l2.1-5h7.3L79.4,50z M85.2,40h-8.1l2.1-5h9L85.2,40z"></path><path d="M7.5,32.5h15c1.4,0,2.5-1.1,2.5-2.5s-1.1-2.5-2.5-2.5h-15C6.1,27.5,5,28.6,5,30S6.1,32.5,7.5,32.5z"></path><path d="M7.5,42.5h16.3c1.4,0,2.5-1.1,2.5-2.5s-1.1-2.5-2.5-2.5H7.5C6.1,37.5,5,38.6,5,40S6.1,42.5,7.5,42.5z"></path><path d="M7.5,52.5H25c1.4,0,2.5-1.1,2.5-2.5s-1.1-2.5-2.5-2.5H7.5C6.1,47.5,5,48.6,5,50S6.1,52.5,7.5,52.5z"></path><path d="M7.5,62.5H20c1.4,0,2.5-1.1,2.5-2.5s-1.1-2.5-2.5-2.5H7.5C6.1,57.5,5,58.6,5,60S6.1,62.5,7.5,62.5z"></path></svg>