<svg height='100px' width='100px'  fill="#FFFFFF" xmlns="http://www.w3.org/2000/svg" xmlns:xlink="http://www.w3.org/1999/xlink" version="1.1" x="0px" y="0px" viewBox="0 0 100 100" enable-background="new 0 0 100 100" xml:space="preserve"><path d="M84.786,50l10.04-12.357c0.534-0.658,0.699-1.542,0.438-2.349c-0.263-0.807-0.915-1.425-1.734-1.644l-15.388-4.097  l0.859-15.899c0.046-0.847-0.341-1.659-1.026-2.157c-0.687-0.499-1.579-0.616-2.369-0.31l-14.856,5.729l-8.65-13.368  C51.638,2.837,50.848,2.407,50,2.407s-1.638,0.43-2.099,1.142l-8.65,13.368l-14.856-5.729c-0.79-0.308-1.683-0.19-2.369,0.31  c-0.686,0.498-1.072,1.311-1.026,2.157l0.859,15.899L6.471,33.65c-0.819,0.219-1.472,0.837-1.734,1.644  c-0.262,0.807-0.097,1.69,0.438,2.349L15.215,50L5.174,62.358C4.64,63.017,4.475,63.9,4.736,64.707  c0.263,0.807,0.915,1.425,1.734,1.644l15.387,4.096l-0.858,15.899c-0.046,0.847,0.341,1.659,1.026,2.157  c0.688,0.5,1.58,0.618,2.369,0.31l14.856-5.729l8.65,13.368c0.461,0.712,1.251,1.142,2.099,1.142s1.638-0.43,2.099-1.142  l8.65-13.368l14.856,5.729c0.789,0.308,1.682,0.19,2.369-0.31c0.686-0.498,1.072-1.311,1.026-2.157l-0.858-15.899l15.387-4.096  c0.819-0.219,1.472-0.837,1.734-1.644c0.262-0.807,0.097-1.69-0.438-2.349L84.786,50z M74.893,66.137  c-1.144,0.305-1.917,1.369-1.853,2.551l0.76,14.07l-13.146-5.07c-1.104-0.428-2.354-0.019-2.998,0.974L50,90.491l-7.655-11.83  c-0.472-0.729-1.271-1.142-2.1-1.142c-0.3,0-0.604,0.054-0.898,0.168L26.2,82.758l0.76-14.07c0.064-1.182-0.709-2.246-1.853-2.551  l-13.616-3.624l8.885-10.937c0.746-0.918,0.746-2.234,0-3.152l-8.885-10.936l13.616-3.625c1.144-0.305,1.917-1.369,1.853-2.551  l-0.76-14.07l13.146,5.07c1.104,0.43,2.355,0.02,2.998-0.974L50,9.509l7.655,11.83c0.643,0.991,1.892,1.403,2.998,0.974l13.146-5.07  l-0.76,14.07c-0.064,1.182,0.709,2.246,1.853,2.551l13.617,3.625l-8.885,10.936c-0.746,0.918-0.746,2.234,0,3.152l8.885,10.937  L74.893,66.137z M65.82,34.617L31.123,61.426c-1.093,0.845-1.294,2.414-0.45,3.507c0.493,0.638,1.232,0.972,1.98,0.972  c0.533,0,1.071-0.17,1.526-0.521l34.697-26.809c1.093-0.845,1.294-2.414,0.45-3.507C68.483,33.976,66.914,33.773,65.82,34.617z   M42.64,44.319c2.338,0,4.535-0.91,6.188-2.563c1.652-1.652,2.563-3.85,2.563-6.186c0-2.338-0.91-4.535-2.563-6.188  c-1.653-1.653-3.851-2.563-6.188-2.563s-4.535,0.91-6.188,2.563s-2.563,3.85-2.563,6.188s0.91,4.535,2.562,6.187  C38.105,43.409,40.303,44.319,42.64,44.319z M57.36,55.681c-2.338,0-4.535,0.91-6.188,2.563c-1.652,1.652-2.563,3.85-2.563,6.186  c0,2.338,0.91,4.535,2.563,6.188c1.653,1.653,3.851,2.563,6.188,2.563c2.337,0,4.534-0.91,6.187-2.563  c1.652-1.652,2.563-3.85,2.563-6.187c0-2.338-0.91-4.535-2.562-6.187C61.895,56.591,59.697,55.681,57.36,55.681z"></path></svg>