<svg height='100px' width='100px'  fill="#1A1A1A" xmlns="http://www.w3.org/2000/svg" xmlns:xlink="http://www.w3.org/1999/xlink" version="1.1" x="0px" y="0px" viewBox="121.059 9.433 269.883 493.133" style="enable-background:new 121.059 9.433 269.883 493.133;" xml:space="preserve"><path d="M390.942,185.48c0-8.983-5.256-16.76-12.849-20.413c-1.981-42.315-25.581-79.066-59.978-99.444l3.893-13.112L375.73,24.53  c3.919-2.041,5.441-6.872,3.4-10.791c-2.042-3.919-6.877-5.442-10.791-3.4l-56.731,29.548c-1.923,1.001-3.356,2.74-3.974,4.818  l-4.03,13.572c-14.634-6.21-30.718-9.647-47.59-9.647c-65.451,0-119.045,51.717-122.077,116.432  c-7.61,3.65-12.878,11.43-12.878,20.417c0,11.882,9.205,21.649,20.858,22.559l5.223,106.687l8.116,165.447  c0.174,9.011,10.041,14.239,33.92,18.008c17.922,2.828,41.66,4.386,66.839,4.386c25.178,0,48.914-1.558,66.837-4.386  c23.881-3.77,33.747-8.997,33.92-18.009l13.312-272.131C381.734,207.146,390.942,197.373,390.942,185.48z M361.936,162.849h-72.688  l24.152-81.343C340.644,99.067,359.383,128.737,361.936,162.849z M256.015,64.631c15.298,0,29.847,3.257,43.001,9.105  l-26.459,89.114H150.095C154.2,108.003,200.138,64.631,256.015,64.631z M137.059,185.48c0-3.656,2.977-6.631,6.635-6.631h124.112  l-3.939,13.266H149.538h-5.844C140.036,192.115,137.059,189.139,137.059,185.48z M350.167,287.708  c-43.693,15.134-65.929,9.054-87.438,3.158c-3.512-0.963-7.043-1.927-10.659-2.805l23.737-79.945h78.253L350.167,287.708z   M236.241,285.161c-18.307-2.059-40.577,0.456-73.725,16.446l-4.577-93.492h101.177L236.241,285.161z M256.015,486.566  c-49.018,0-77.945-5.712-84.884-9.319l-7.76-158.199c31.408-16.155,51.456-19.626,68.234-18.274l-33.604,113.178  c-1.258,4.235,1.156,8.688,5.392,9.946c0.76,0.226,1.526,0.333,2.28,0.333c3.45,0,6.634-2.249,7.666-5.725L247.51,303.42  c3.66,0.871,7.288,1.861,10.989,2.876c21.798,5.975,46.32,12.693,90.83-1.447l-8.433,172.399  C333.957,480.854,305.03,486.566,256.015,486.566z M368.34,192.115h-5.878h-81.904l3.939-13.266h83.843  c3.579,0,6.603,3.037,6.603,6.631C374.942,189.139,371.98,192.115,368.34,192.115z"></path></svg>