<svg height='100px' width='100px'  fill="#053f0f" xmlns="http://www.w3.org/2000/svg" xmlns:xlink="http://www.w3.org/1999/xlink" version="1.1" x="0px" y="0px" viewBox="0 0 32 32" enable-background="new 0 0 32 32" xml:space="preserve"><path d="M27.563,13.22l-10.78-8.626c-0.432-0.345-1.131-0.345-1.563,0L4.438,13.22c-0.431,0.344-0.502,0.974-0.156,1.405  c0.344,0.431,0.973,0.501,1.405,0.156l0.607-0.485v9.733C6.294,24.564,6.729,25,7.265,25h5.823v-3.882  c0-1.608,1.305-2.912,2.912-2.912c1.607,0,2.912,1.304,2.912,2.912V25h5.822c0.537,0,0.972-0.436,0.972-0.971v-9.733l0.606,0.485  c0.433,0.345,1.062,0.275,1.406-0.156C28.064,14.194,27.995,13.565,27.563,13.22z M16,12.5c-0.967,0-1.75-0.783-1.75-1.75  S15.033,9,16,9s1.75,0.783,1.75,1.75S16.967,12.5,16,12.5z"></path></svg>