<svg height='100px' width='100px'  fill="#FFFFFF" xmlns="http://www.w3.org/2000/svg" xmlns:xlink="http://www.w3.org/1999/xlink" version="1.1" x="0px" y="0px" viewBox="0 0 100 100" style="enable-background:new 0 0 100 100;" xml:space="preserve"><g><path d="M29.1,37.4h31.9c2.2,0,4-1.8,4-4s-1.8-4-4-4H29.1c-2.2,0-4,1.8-4,4S26.9,37.4,29.1,37.4z"></path><path d="M60.9,62.6H29.1c-2.2,0-4,1.8-4,4s1.8,4,4,4h31.9c2.2,0,4-1.8,4-4S63.1,62.6,60.9,62.6z"></path><path d="M70.9,46H29.1c-2.2,0-4,1.8-4,4s1.8,4,4,4h41.9c2.2,0,4-1.8,4-4S73.1,46,70.9,46z"></path></g></svg>