<svg height='100px' width='100px'  fill="#1A1A1A" xmlns="http://www.w3.org/2000/svg" data-name="Layer 1" viewBox="0 0 32 32" x="0px" y="0px"><title>rice, bowl, meal, food</title><path d="M21.28,9.71a1.52,1.52,0,0,1,1.33-.11,1.48,1.48,0,0,1,.92,1.21.5.5,0,0,0,.5.44h.06a.5.5,0,0,0,.44-.55,2.49,2.49,0,0,0-3.78-1.83l-.09.07h0a.49.49,0,0,0,0,.7A.5.5,0,0,0,21.28,9.71Z"></path><path d="M7.91,11.25H8a.5.5,0,0,0,.5-.44,1.47,1.47,0,0,1,.92-1.2,1.52,1.52,0,0,1,1.31.09.5.5,0,0,0,.65,0,.51.51,0,0,0,0-.71l-.09-.07A2.53,2.53,0,0,0,9,8.68a2.5,2.5,0,0,0-1.54,2A.5.5,0,0,0,7.91,11.25Z"></path><path d="M29.54,9l-.15-.09A2.41,2.41,0,0,0,26.71,7a2.5,2.5,0,0,0-2.23-2.71,2.44,2.44,0,0,0-1.22.18,2.46,2.46,0,0,0-1-1.58,2.51,2.51,0,0,0-1.87-.41A2.43,2.43,0,0,0,19.26,3,2.52,2.52,0,0,0,15.94,1.9a2.42,2.42,0,0,0-.94.8,2.48,2.48,0,0,0-4.18.87,2.49,2.49,0,0,0-3.41.8,2.5,2.5,0,0,0-.37,1.18A2.49,2.49,0,0,0,4,8.5,2.49,2.49,0,0,0,2.5,13h0v9.22a6.29,6.29,0,0,0,5,6.15V29A1.5,1.5,0,0,0,9,30.5H23A1.5,1.5,0,0,0,24.5,29v-.63a6.29,6.29,0,0,0,5-6.15V13h0a2.47,2.47,0,0,0,0-4Zm-25,.58h0a.49.49,0,0,0,.23.06.5.5,0,0,0,.5-.5.49.49,0,0,0-.08-.26l0,0,0,0A1.51,1.51,0,0,1,7.3,6.76l0,0,.1.07.05,0a.49.49,0,0,0,.69-.47.51.51,0,0,0,0-.18,1.49,1.49,0,0,1,2.19-1.8,1.74,1.74,0,0,1,.43.39l.05.05.06.06a.48.48,0,0,0,.33.14.5.5,0,0,0,.5-.5v0a1.49,1.49,0,0,1,.48-1.24,1.51,1.51,0,0,1,2.12.1,1.59,1.59,0,0,1,.31.55.48.48,0,0,0,0,.06.5.5,0,0,0,.05.1l.07.07.07.06.12,0,0,0h.08l.09,0h.07a.5.5,0,0,0,.15-.08l0,0a.5.5,0,0,0,.1-.12.5.5,0,0,0,0-.07.48.48,0,0,0,0-.09,1.47,1.47,0,0,1,.81-1.07,1.51,1.51,0,0,1,2,.69,1.44,1.44,0,0,1,.15.59.5.5,0,0,0,1,.2,1.46,1.46,0,0,1,1.06-.78,1.51,1.51,0,0,1,1.74,1.21,1.29,1.29,0,0,1,0,.6.64.64,0,0,0,0,.17.49.49,0,0,0,.5.49.48.48,0,0,0,.2,0l.05,0a.5.5,0,0,0,.12-.1l0,0a1.53,1.53,0,0,1,1.24-.45A1.5,1.5,0,0,1,25.71,7a1.3,1.3,0,0,1-.17.53l0,.06-.05.1h0a.5.5,0,0,0,.07.52.47.47,0,0,0,.67.06,1.52,1.52,0,0,1,1.34-.11,1.48,1.48,0,0,1,.92,1.21.47.47,0,0,0,0,.06.48.48,0,0,0,0,.08l.05.09.05.07.1.07,0,0,.17.11A1.5,1.5,0,0,1,28,12.5H4a1.5,1.5,0,1,1,.54-2.9Zm19,18.9V29a.5.5,0,0,1-.5.5H9a.5.5,0,0,1-.5-.5v-.5h15Zm5-15v8.72a5.29,5.29,0,0,1-5.28,5.28H8.78A5.29,5.29,0,0,1,3.5,22.22V13.5Z"></path><path d="M14,6.5a.5.5,0,0,0,.5-.5.5.5,0,0,1,1,0,.5.5,0,0,0,1,0,1.5,1.5,0,0,0-3,0A.5.5,0,0,0,14,6.5Z"></path><path d="M14.5,11a.5.5,0,0,0,1,0,.5.5,0,0,1,1,0,.5.5,0,0,0,1,0,1.5,1.5,0,0,0-3,0Z"></path></svg>