<svg height='100px' width='100px'  fill="#1A1A1A" xmlns="http://www.w3.org/2000/svg" xmlns:xlink="http://www.w3.org/1999/xlink" version="1.1" x="0px" y="0px" viewBox="0 0 100 100" enable-background="new 0 0 100 100" xml:space="preserve"><g><path d="M56.2,55.1c-1.9,3.3-4.6,5.9-7.1,7.7c0,0-0.3,0.2-0.4,0.3c-3,2.1-5.8,3.1-7,2.6c0,0,0.3-0.4,0.9-1.1   c0.5-0.7,1.3-1.7,2.2-2.8c0.9-1.2,1.8-2.6,2.8-4.1c1-1.5,2-3.2,3-4.8c1-1.7,1.9-3.3,2.7-4.9c0.8-1.6,1.6-3.1,2.2-4.4   c0.6-1.3,1.1-2.4,1.4-3.2c0.3-0.8,0.5-1.2,0.5-1.2c0.8,0.4,1.4,1.5,1.7,3.1C59.1,42,59.2,49.9,56.2,55.1z M43.5,61.4   c0.6-1.3,1.3-2.8,2.2-4.4c0.8-1.6,1.8-3.3,2.7-4.9c1-1.7,2-3.3,3-4.8c1-1.5,2-2.9,2.8-4.1c0.9-1.2,1.6-2.2,2.2-2.8   c0.5-0.7,0.9-1,0.9-1c-2.5-1-10,3.2-14.3,10.5c-4.3,7.3-3.5,15.2-1.3,16.1c0,0,0.2-0.5,0.5-1.2C42.5,63.8,42.9,62.7,43.5,61.4z    M67.6,73.2c0.7-1.4,1-2.5,0.6-3.2c0,0-0.4,0.2-1,0.7c-0.6,0.4-1.5,1-2.7,1.6c-1.1,0.7-2.4,1.4-3.8,2.1c-1.4,0.7-3,1.5-4.5,2.2   c-1.6,0.7-3.1,1.4-4.6,2c-1.5,0.6-2.9,1.2-4.1,1.6c-1.2,0.4-2.2,0.8-3,1c-0.7,0.2-1.2,0.3-1.2,0.3c0.5,1,2.8,1.8,5.9,1.8   c0.1,0,0.2,0,0.4,0c0,0,0.1,0,0.1,0c2.6,0,5.8-0.6,8.9-2C63.4,79,67.7,73,67.6,73.2z M47,79.2c1.1-0.7,2.4-1.4,3.8-2.2   c1.4-0.7,3-1.5,4.5-2.2c1.6-0.7,3.1-1.4,4.6-2c1.5-0.6,2.9-1.1,4.1-1.6c1.2-0.4,2.3-0.7,3-1c0.7-0.2,1.2-0.3,1.2-0.3   c-1-2.1-8.2-3-15,0.2c-6.9,3.2-10.7,9.6-9.8,11.4c0,0,0.4-0.3,1-0.7C45,80.4,45.9,79.8,47,79.2z M36.7,78.3   c1.5-0.1,2.7-0.5,3.1-1.2c0,0-0.4-0.2-1.1-0.5c-0.7-0.3-1.7-0.8-2.8-1.4c-1.1-0.6-2.5-1.4-3.8-2.2c-1.4-0.8-2.8-1.8-4.3-2.7   c-1.4-1-2.8-1.9-4.1-2.9c-1.3-1-2.5-1.9-3.5-2.7c-1-0.8-1.8-1.5-2.4-2c-0.6-0.5-0.9-0.8-0.9-0.8c-0.6,0.9,0,3.3,1.6,6   c0.1,0.1,0.1,0.2,0.2,0.3c0,0,0,0,0,0.1c1.4,2.3,3.5,4.7,6.3,6.6C29.5,77.8,36.9,78.3,36.7,78.3z M20.8,63.7   c1.1,0.6,2.5,1.4,3.9,2.2c1.4,0.8,2.8,1.8,4.3,2.7c1.4,1,2.8,1.9,4.1,2.9c1.3,1,2.5,1.9,3.5,2.7c1,0.8,1.8,1.5,2.4,2.1   c0.6,0.5,0.9,0.8,0.9,0.8c1.3-2-1.7-8.6-8-12.8c-6.3-4.2-13.8-4.2-14.9-2.5c0,0,0.4,0.2,1.1,0.5C18.7,62.6,19.7,63.1,20.8,63.7z    M81.3,69.7c1.5,0.3,2.7,0.2,3.3-0.4c0,0-0.3-0.3-0.9-0.8c-0.6-0.5-1.4-1.2-2.4-2.1c-1-0.9-2-1.9-3.2-3.1c-1.1-1.1-2.3-2.4-3.5-3.7   c-1.2-1.3-2.3-2.6-3.3-3.8c-1-1.3-2-2.4-2.7-3.5c-0.8-1-1.4-1.9-1.8-2.6c-0.4-0.6-0.6-1-0.6-1c-0.8,0.7-0.9,3.2,0.1,6.2   c0,0.1,0.1,0.2,0.1,0.4c0,0,0,0.1,0,0.1c0.8,2.5,2.3,5.4,4.5,7.9C74.4,67.5,81.5,69.8,81.3,69.7z M69.4,51.7c1,0.9,2.1,1.9,3.2,3.1   c1.1,1.1,2.3,2.4,3.5,3.7c1.2,1.3,2.3,2.6,3.3,3.8c1,1.3,2,2.4,2.7,3.5c0.8,1,1.4,1.9,1.8,2.6c0.4,0.6,0.6,1,0.6,1   c1.7-1.6,0.4-8.7-4.7-14.4c-5.1-5.6-12.4-7.5-13.8-6.1c0,0,0.4,0.3,0.9,0.7C67.6,50.1,68.5,50.8,69.4,51.7z M73.9,42.6   c1.5,0.4,2.7,0.5,3.3,0c0,0-0.3-0.3-0.8-0.9c-0.5-0.5-1.3-1.3-2.1-2.3c-0.9-1-1.8-2.1-2.9-3.4c-1-1.3-2.1-2.6-3.1-4   c-1-1.4-2-2.8-2.9-4.1c-0.9-1.3-1.7-2.6-2.4-3.7c-0.7-1.1-1.2-2.1-1.6-2.7c-0.4-0.7-0.5-1.1-0.5-1.1c-0.9,0.7-1.2,3.1-0.6,6.2   c0,0.1,0,0.2,0.1,0.4c0,0,0,0.1,0,0.1c0.5,2.6,1.7,5.6,3.7,8.3C67.3,39.7,74.1,42.7,73.9,42.6z M63.9,23.4c0.9,1,1.8,2.1,2.9,3.4   c1,1.3,2.1,2.6,3.1,4c1,1.4,2,2.8,2.9,4.1c0.9,1.4,1.7,2.6,2.4,3.8c0.7,1.1,1.2,2.1,1.5,2.8c0.4,0.7,0.5,1.1,0.5,1.1   c1.9-1.4,1.3-8.6-3.2-14.8c-4.5-6.1-11.5-8.7-13.1-7.5c0,0,0.3,0.3,0.9,0.8C62.3,21.7,63.1,22.5,63.9,23.4z M30.1,54.6   c1.5,0.4,2.7,0.4,3.3,0c0,0-0.3-0.3-0.8-0.9c-0.5-0.5-1.3-1.3-2.1-2.3c-0.9-1-1.8-2.1-2.9-3.4c-1-1.3-2.1-2.6-3.1-4   c-1-1.4-2-2.8-2.9-4.1c-0.9-1.3-1.7-2.6-2.4-3.7c-0.7-1.1-1.2-2.1-1.6-2.7c-0.4-0.7-0.5-1.1-0.5-1.1c-0.9,0.7-1.2,3.1-0.6,6.2   c0,0.1,0,0.2,0.1,0.4c0,0,0,0.1,0,0.1c0.5,2.6,1.7,5.6,3.7,8.3C23.5,51.7,30.3,54.7,30.1,54.6z M20.1,35.5c0.9,1,1.9,2.1,2.9,3.4   c1,1.3,2.1,2.6,3.1,4c1,1.4,2,2.8,2.9,4.1c0.9,1.3,1.7,2.6,2.4,3.7c0.7,1.1,1.2,2.1,1.5,2.7c0.4,0.7,0.5,1.1,0.5,1.1   c1.9-1.4,1.3-8.6-3.2-14.8c-4.5-6.1-11.5-8.7-13.2-7.4c0,0,0.3,0.3,0.9,0.8C18.4,33.7,19.2,34.5,20.1,35.5z M46.4,36.9   c1.5,0.2,2.7-0.1,3.2-0.7c0,0-0.4-0.2-1-0.7c-0.6-0.4-1.5-1.1-2.5-1.9c-1-0.8-2.2-1.7-3.5-2.8c-1.2-1-2.5-2.2-3.8-3.3   c-1.3-1.2-2.5-2.4-3.6-3.5c-1.1-1.2-2.2-2.2-3-3.2c-0.9-1-1.6-1.8-2-2.4c-0.5-0.6-0.7-0.9-0.7-0.9c-0.7,0.8-0.6,3.3,0.6,6.2   c0,0.1,0.1,0.2,0.1,0.3c0,0,0,0.1,0,0.1c1,2.4,2.7,5.2,5.2,7.5C39.4,35.3,46.7,37,46.4,36.9z M33,20c1,0.8,2.2,1.7,3.5,2.8   c1.2,1,2.5,2.2,3.8,3.3c1.3,1.2,2.5,2.4,3.6,3.5c1.1,1.2,2.2,2.3,3,3.2c0.9,1,1.6,1.8,2,2.4c0.5,0.6,0.7,1,0.7,1   c1.6-1.7-0.3-8.7-5.9-13.9c-5.6-5.2-13-6.3-14.3-4.8c0,0,0.4,0.2,1,0.7C31.1,18.6,32,19.2,33,20z"></path></g></svg>